<?xml version="1.0" encoding="utf-8"?>
<!-- Generator: Adobe Illustrator 19.0.0, SVG Export Plug-In . SVG Version: 6.00 Build 0)  -->
<svg version="1.1" xmlns="http://www.w3.org/2000/svg" xmlns:xlink="http://www.w3.org/1999/xlink" x="0px" y="0px"
	 viewBox="0 0 569.8 444.9" style="enable-background:new 0 0 569.8 444.9;" xml:space="preserve">
<style type="text/css">
	.st0{fill:#FFFFFF;}
	.st1{fill-rule:evenodd;clip-rule:evenodd;fill:#FFFFFF;}
</style>
<g id="Layer_1">
	<g>
		<g>
			<path class="st0" d="M290.2,178.3c-0.8-1.6-1.8-3.2-2.8-4.8c-21.5,0.3-43.5,1.3-65.7,2.9c0,0.1,0,0.2,0,0.3
				C237.8,176.3,262.2,176.8,290.2,178.3z"/>
			<path class="st0" d="M218,176.8C218,176.8,218,176.7,218,176.8c-0.9,0-1.8,0-2.8,0.1C216.1,176.8,217,176.8,218,176.8z"/>
		</g>
		<path class="st1" d="M277.9,0c7.8,34.1,70.2,134.4,71.6,199.8c-0.8,87-149.6,87.1-150.2-0.2C200.8,135,267.3,34,277.9,0L277.9,0
			L277.9,0L277.9,0z M276.7,34.2c13.7,27.3,55.9,99.6,56.8,164.6c-0.3,68.3-115.1,69.7-117.4,0.9C216.3,134.5,263.5,61.5,276.7,34.2
			L276.7,34.2L276.7,34.2z"/>
		<path class="st1" d="M285,58.6l-10,5.8c-22.6,26.4-23.1,64.4-0.6,87.9c49.8,46.2,17.1,93.3-25.9,86l8.8,5.2
			c26.7,0.7,42.7-9,49.1-36c4.6-17.8,1.5-33.5-15.8-55C261.8,126.4,258.2,92.2,285,58.6L285,58.6L285,58.6z"/>
		<path class="st0" d="M215.2,176.9c-5.2,0.2-9.2,0.5-11.4,0.9C207.6,177.5,211.4,177.2,215.2,176.9z"/>
		<path class="st0" d="M248.7,217.8c2.1-0.1,4.2-0.2,6.3-0.3C252.2,217.6,250,217.7,248.7,217.8z"/>
		<path class="st0" d="M291.1,217.4c-11-0.5-23.1-0.5-36.1,0.1c8-0.1,21.1,0.6,34.6,2.3C290.1,219.1,290.6,218.3,291.1,217.4z"/>
		<path class="st0" d="M248.7,202.6c4.3-0.3,8.5-0.6,12.7-0.9C255.8,201.9,251.4,202.2,248.7,202.6z"/>
		<path class="st0" d="M295.7,202.6c0.1-0.7,0.1-1.4,0.1-2.1c-11.1,0.1-22.6,0.6-34.4,1.3C270.3,201.6,282.3,201.8,295.7,202.6z"/>
		<path class="st1" d="M395,359.7c2.8,0,5.2,0.8,7.2,2.3c1.9,1.6,2.9,3.6,2.9,6.1c0,2.4-1,4.4-2.9,6c-2,1.5-4.3,2.3-7.2,2.3
			c-2.8,0-5.2-0.8-7-2.4c-1.9-1.6-2.8-3.5-2.8-5.9c0-2.4,0.9-4.4,2.8-6.1C389.8,360.5,392.1,359.7,395,359.7L395,359.7L395,359.7
			L395,359.7z"/>
		<path class="st1" d="M397.8,382.5l-13,30.7c-0.7,1.4-1,2.6-1,3.8c0,2.2,1.6,3.2,4.7,3.2c1.9,0,3.7-0.3,5.5-1
			c1.1-0.4,2-0.8,2.7-1.1c0.7-0.3,1.6-0.8,2.7-1.5l4.6-2.6l1.2,1c-3.7,2.7-7.5,4.7-11.3,5.9c-3.8,1.3-7.8,1.9-11.9,1.9
			c-2.6,0-4.8-0.1-6.4-0.4c-1.6-0.3-3.3-0.8-4.9-1.6c-2.7-1.3-4.1-3.1-4.1-5.4c0-1.6,0.4-3.2,1.2-4.7l10.7-24.8L397.8,382.5
			L397.8,382.5L397.8,382.5L397.8,382.5z"/>
		<path class="st1" d="M229.5,386.1l19.4-2.8l-12.7,28.3c-0.5,1-0.8,2-1.1,2.9c-0.3,0.9-0.4,1.6-0.5,2.2c0,2.2,1.4,3.3,4.2,3.3
			c3.4,0,7.7-1.3,12.7-4v-1.4c0-0.9,0.5-2.7,1.4-5.4l10-22.9l19.5-3l-12.9,28c-0.9,2.2-1.4,4-1.4,5.4c0,2.2,1.4,3.3,4.2,3.3
			c3.6,0,9-2,16.3-6.1l1.1,1.2c-4.5,2.7-8.6,4.7-12.2,5.9c-3.6,1.3-7.4,1.9-11.4,1.9c-7,0-11.6-1.7-14.1-5.2c-2.8,1.5-6,2.7-9.6,3.6
			c-3.6,0.9-7,1.3-10.5,1.3c-4.1,0-7.4-0.8-10.1-2.4c-2.7-1.6-4-3.5-4-5.9c0-1.3,0.5-3.1,1.4-5.4L229.5,386.1L229.5,386.1
			L229.5,386.1L229.5,386.1z"/>
		<path class="st1" d="M195.4,368l19.5-3.1l-9.3,21.5h9.3l-3.4,4h-7.3l-9.6,23.1c-0.7,1-1.1,2.2-1.1,3.5c0,2.2,1.6,3.2,4.7,3.2
			c1.4,0,2.8-0.1,4-0.4c1.3-0.3,2.8-0.7,4.5-1.3c1.7-0.6,3.4-1.3,5.1-2c1.7-0.7,3.2-1.5,4.5-2.2l0.8,1.2c-8.8,5.1-17.4,7.6-25.9,7.6
			c-4.5,0-8-0.7-10.6-2.2c-2.6-1.5-3.9-3.5-3.9-6c0-1.2,0.3-2.7,1.1-4.4l8.8-20.1h-6.8l3.4-4.3h5L195.4,368L195.4,368L195.4,368
			L195.4,368z"/>
		<path class="st1" d="M256,305.9c-2.9-2.6-7.4-4.3-13.4-4.9l-10-0.3l2.2-3.8l-21,1.1l-2.2,3.6c-5.1,1.4-9.8,3.5-14.1,6.5
			c-4.3,3-6.8,6.4-7.4,10.5l-0.3,3.6c4.6-8.3,11.5-14.5,20.6-18.4L197.2,326c-8.2-0.9-12.6,0.4-13.2,4.1c-0.5,3,1.5,5.4,5.9,7.2
			l-13,21l22.9-3l8.4-14.2c5.8,0.7,11.6,0.4,17.3-0.7c6,3.1,7.4,4.5,14.3,5c2.7,0.2,8.3-2.2,5.7-2.1c-3.3,0.1-4.7-0.4-5-0.6
			c-4.9-1.7-3.2-1.3-8.2-4.3c16.5-5.1,25.5-12.5,27-22.1C260,312,258.9,308.5,256,305.9z M191.1,335.7c-1.5-1.1-2.2-2.4-1.9-3.9
			c0.2-1.3,1-2.4,2.2-3.2c1.3-0.8,2.8-1.1,4.6-0.9L191.1,335.7z M209.2,339.4l3.8-6.3l3.8,2.1l4.1,2.5
			C216.9,339.3,213,339.8,209.2,339.4z M240.5,311.7c-0.5,3.2-2.2,7-5.1,11.3c-2.9,4.3-6.2,8.2-10.1,11.7l-10.5-4.7l16.6-27.7
			l2.9,0.3c2.2,0.3,3.9,1.1,5,2.7C240.5,307,240.9,309.1,240.5,311.7z"/>
		<path class="st1" d="M342.6,337.6c-2.6,1.3-5.8,2.4-9.6,3.1c-3.8,0.7-6.9,1-9.3,0.7c-1.4-0.2-2.6-0.7-3.6-1.5c-0.9-1-1.3-2-1.1-3
			c0.1-0.9,0.9-2.1,2.2-3.8l19.8-31l-20.9,0.8c-1.3-1.5-2.7-2.5-4.3-3.2c-1.6-0.7-3.8-1.1-6.6-1.5c-10.2-1.2-19.2,1.2-27,6.9
			c-4.1,3.1-7.6,6.7-10.7,10.8c-3.1,4.1-4.9,7.9-5.4,11.3c-0.6,3.9,0.5,7,3.3,9.2c2.8,2.3,6.8,3.7,11.9,4.3
			c6.6,0.8,13.2-0.3,19.7-3.2c2.8,3.9,7.5,6.2,14.2,7c4.2,0.5,8.9,0.2,14-0.8c5.5-1.2,10.2-2.8,14.1-4.7L342.6,337.6z M302.6,327.2
			c-1.3,2.8-2.1,4.7-2.3,5.9l0.3,2.2l-4,1.5c-1,0.4-2.1,0.7-3.1,0.8c-1,0.1-2.1,0.2-3.1,0c-3.8-0.4-5.5-2.5-4.9-6.2
			c0.7-4.3,4.6-10.9,11.6-20c3.2-4.6,5.8-7.7,7.8-9.2c2-1.5,4.1-2.1,6.4-1.9c2.8,0.3,5.1,1.6,6.9,3.8L302.6,327.2z"/>
		<path class="st1" d="M203.2,255.9c-109.5,49.8,42.4,167.8-101.5,189C207.5,413.7,59.7,294.1,203.2,255.9L203.2,255.9L203.2,255.9
			L203.2,255.9z M153.6,295.1c-18.3,13.8,32.7,73.6-1.6,119C161.9,395,115.9,321.6,153.6,295.1L153.6,295.1L153.6,295.1z"/>
		<path class="st0" d="M147.8,281.5c-61.6-13.1-108.1-34.6-91.9-68.9c-46.1,12.8-66.7,27.6-50.3,45.4c22.6,16.3,71,29,133.5,36.3
			C141.3,289.8,144.1,285.5,147.8,281.5z"/>
		<g>
			<path class="st0" d="M199.8,256.9c-6.6,1.9-12.5,3.9-17.9,6.2c2.2,0.3,4.4,0.7,6.6,1c3.6-2.4,7.7-4.7,12.2-6.9
				C200.4,257,200.1,257,199.8,256.9z"/>
			<path class="st0" d="M175.3,262c5.2-2.4,11.1-4.7,17.6-6.8c-27.5-7.3-46-18.4-39.1-34.7c-26.7,7.4-37.1,14.9-27.6,25.2
				C135.8,252.5,153,258,175.3,262z"/>
			<path class="st0" d="M206,258.2c-0.3,0.4-0.7,0.7-1.2,1c-3.9,1.8-7.4,3.6-10.6,5.5c33.5,4.1,75.3,5.3,119.8,3.1
				C288.7,268.2,242.5,265.9,206,258.2z"/>
			<path class="st0" d="M314,267.8c7.3-0.1,12.9-0.4,16-0.9C324.6,267.2,319.3,267.5,314,267.8z"/>
		</g>
		<g>
			<path class="st0" d="M306.8,218.5c-0.5,1.3-1.1,2.6-1.7,3.8c5.7,1.1,11.2,2.5,15.9,4c1.3-1.7,2.5-3.5,3.5-5.5
				C319.2,219.9,313.3,219.1,306.8,218.5z"/>
			<path class="st0" d="M347.1,227.6c-2.7,5.9-6.3,11.3-10.8,16.2c13.5-4.5,19-8.8,13.9-14.3C349.3,228.8,348.3,228.2,347.1,227.6z"
				/>
			<path class="st0" d="M328.3,221.6c-1.1,2.2-2.4,4.2-3.7,6.1c6.7,2.6,11.3,5.9,12.4,9.8c2.7-3.5,5-7.2,6.8-11.4
				C339.8,224.4,334.6,222.9,328.3,221.6z"/>
		</g>
		<g>
			<path class="st0" d="M311.5,200.5c-0.1,1.1-0.3,2.1-0.5,3.2c6,0.5,12.2,1.2,18.4,1.9c0.2-1.5,0.3-3.1,0.4-4.7
				C323.8,200.7,317.8,200.5,311.5,200.5z"/>
			<path class="st0" d="M441.9,223.4c-14.7-9.8-46.3-17.7-89-21.1c-0.1,2.3-0.3,4.5-0.6,6.7c38.4,6.9,70.5,19.3,62.2,40.4
				C440.9,241.2,451.8,233.5,441.9,223.4z"/>
			<path class="st0" d="M333.4,201.1c-0.1,1.7-0.2,3.4-0.4,5c5.3,0.7,10.6,1.5,15.8,2.4c0.3-2.1,0.4-4.2,0.5-6.4
				C344.2,201.6,338.9,201.3,333.4,201.1z"/>
		</g>
		<g>
			<path class="st0" d="M561.3,214.2c-32.9-20.2-113.1-36.3-211.2-40c0.6,3.1,1.1,6.2,1.6,9.2c89.9,9.9,183.3,32.2,164,77.6
				C563.5,248.9,582.1,234.8,561.3,214.2z"/>
			<path class="st0" d="M307.8,173.4c0.9,2.1,1.6,4.2,2.2,6.2c6.1,0.4,12.3,0.9,18.6,1.5c-0.3-2.5-0.6-5-1-7.5
				C321.1,173.5,314.5,173.4,307.8,173.4z"/>
			<path class="st0" d="M331.3,173.6c0.4,2.6,0.8,5.2,1.1,7.8c5.2,0.5,10.3,1,15.5,1.5c-0.4-2.9-0.9-5.9-1.6-8.9
				C341.4,173.9,336.4,173.8,331.3,173.6z"/>
		</g>
		<path class="st0" d="M213.8,297.9l-1.3,2.2c10.2,0.5,20.5,0.8,31.1,1c-0.3,0-0.6-0.1-1-0.2l-10-0.3l2.2-3.8L213.8,297.9z"/>
		<path class="st0" d="M209.3,298.4l1.4-2.3c0.6-1,1.7-1.7,2.9-1.7l14.2-0.7c-18.8-1.9-37.9-4.4-56.3-7.6c-2.2,3.6-3.8,7.3-5,11.1
			c12.5,1.1,25.5,2,38.8,2.7C206.6,299.3,208,298.8,209.3,298.4z"/>
		<g>
			<path class="st0" d="M281,301.4c1.8-1.2,3.6-2.4,5.5-3.3c-15.3-0.8-31.9-2-48.9-3.6c0.1,0.1,0.2,0.3,0.3,0.4
				c0.4,0.7,0.6,1.5,0.5,2.2l4.3,0.1c5.5,0.6,9.8,2,13.1,4C264.2,301.4,272.6,301.4,281,301.4z"/>
			<path class="st0" d="M343.6,299.5c0.5,0,1,0,1.5-0.1C344.7,299.5,344.1,299.5,343.6,299.5C343.6,299.5,343.6,299.5,343.6,299.5z"
				/>
		</g>
		<path class="st1" d="M345.4,420.3c-3.7,0-5.6-1.2-5.6-3.8l0.9-3.1l24.4-58.4l-19.1,2.8l-11.8,27.9c-2.8-2.1-6.5-3.2-10.9-3.2
			c-5.6,0-10.8,1.7-15.9,5c-5.1,3.3-9.1,7.3-12,12c-3,4.7-4.5,9.2-4.5,13.5c0,3.2,1.2,5.7,3.7,7.5c2.4,1.8,5.7,2.7,9.8,2.7
			c7,0,13.3-1.6,18.9-4.7c2.9,3.1,7.7,4.7,14.3,4.7c9.7,0,18-2.5,24.7-7.5l-0.8-1.2C355.6,418.4,350.3,420.3,345.4,420.3z
			 M323.2,412c-0.4,1.4-0.6,2.4-0.6,3.1v1.9c-2.7,2.3-5.5,3.4-8.4,3.4c-1.7,0-3.1-0.5-4.2-1.4c-1.1-1-1.7-2.2-1.7-3.6
			c0-2.1,1.6-7.1,4.7-15c2.9-6.1,5.3-10.2,7.2-12.4c2-2.2,4.2-3.3,6.4-3.3c3,0,5.4,1.2,7,3.6L323.2,412z"/>
		<path class="st1" d="M469.8,406.2c-2.8,1-5.9,1.5-9.4,1.5c-3,0-5.4-0.4-7.3-1.2c2.8-4.3,4.2-9.1,4.2-14.5c0-3.9-1-7-2.9-9.2
			c-1.9-2.2-4.4-3.3-7.6-3.3c-3,0-5.3,1-7,2.9c-1.7,1.9-2.5,4.6-2.5,8c0,5.2,2.2,10.1,6.7,14.6c-4.8,10.8-10.2,16.1-16.3,16.1
			c-1.4,0-2.6-0.5-3.5-1.4c-0.9-0.9-1.3-2.2-1.3-3.8c0-3.8,1.1-8.1,3.3-13c2.2-4.9,4.6-9.2,7.1-13.2l4.2-6.2
			c-0.1-0.5-0.5-0.7-1.2-0.7c-2.9,0-6.2,0.9-10.1,2.9c-5.8,2.5-10.6,6.2-14.4,11c-2,2.6-3.5,5.2-4.5,7.6c-0.9,2.4-1.4,4.9-1.4,7.4
			c0,7.7,6.2,11.5,18.6,11.5c11.8,0,21-5,27.6-15.1c2.8,0.8,5.8,1.2,9,1.2c2.9,0,5.9-0.6,8.9-1.7L469.8,406.2z M445.3,402.4
			c-1.7-1.8-3-4.1-4-6.8c-1-2.7-1.4-5.1-1.4-7.4c0-1.6,0.4-3.1,1.1-4.4c0.8-1.3,1.6-2,2.5-2c1.2,0.1,2,1,2.5,2.5
			c0.6,1.5,0.9,3.8,0.9,6.8C446.9,393.7,446.4,397.5,445.3,402.4z"/>
	</g>
</g>
<g id="Layer_2">
</g>
</svg>
